<?xml version="1.0" encoding="UTF-8" standalone="no"?>
<!DOCTYPE svg PUBLIC "-//W3C//DTD SVG 20010904//EN" "http://www.w3.org/TR/2001/REC-SVG-20010904/DTD/svg10.dtd">
<!-- Created with Sodipodi ("http://www.sodipodi.com/") -->
<svg id="svg601" sodipodi:version="0.32" width="72pt" height="72pt" sodipodi:docbase="/opt/kde/share/icons/Gartoon.Blue/scalable/actions" sodipodi:docname="about.svg" inkscape:version="0.39" xmlns="http://www.w3.org/2000/svg" xmlns:cc="http://web.resource.org/cc/" xmlns:inkscape="http://www.inkscape.org/namespaces/inkscape" xmlns:sodipodi="http://sodipodi.sourceforge.net/DTD/sodipodi-0.dtd" xmlns:rdf="http://www.w3.org/1999/02/22-rdf-syntax-ns#" xmlns:dc="http://purl.org/dc/elements/1.1/" xmlns:xlink="http://www.w3.org/1999/xlink">
  <defs id="defs603"/>
  <sodipodi:namedview id="base" inkscape:zoom="5.0138889" inkscape:cx="36.000000" inkscape:cy="36.000000" inkscape:window-width="804" inkscape:window-height="629" inkscape:window-x="0" inkscape:window-y="54"/>
  <path style="font-size:12.000000;fill:#000000;fill-opacity:0.29999998;fill-rule:evenodd;stroke-width:1.0000000pt;" d="M 74.530840,89.230938 L 46.407465,74.580323 L 18.579941,89.813095 L 23.609377,58.110441 L 0.75483402,35.933289 L 31.986584,30.990550 L 45.689176,2.0514428 L 59.962066,30.699423 L 91.285230,34.991192 L 68.874636,57.639394 L 74.530840,89.230938 z " id="path643"/>
  <path style="font-size:12.000000;fill:#532c25;fill-opacity:1.0000000;fill-rule:evenodd;stroke-width:1.0000000pt;" d="M 72.099458,85.065956 L 44.816948,71.017810 L 17.821445,85.624174 L 22.700505,55.225210 L 0.52929354,33.960035 L 30.827241,29.220553 L 44.120136,1.4714919 L 57.966278,28.941398 L 88.352906,33.056679 L 66.612370,54.773533 L 72.099458,85.065956 z " id="path635"/>
  <polygon sodipodi:type="star" style="font-size:12.000000;fill:#f1e36c;fill-opacity:1.0000000;fill-rule:evenodd;stroke-width:1.0000000pt;" id="polygon609" sodipodi:sides="5" sodipodi:cx="17.385765" sodipodi:cy="20.456940" sodipodi:r1="39.259846" sodipodi:r2="19.629923" sodipodi:arg1="0.91022110" sodipodi:arg2="1.5385396" points="41.4745,51.4581 18.0189,40.0767 -4.65423,52.9465 -1.07805,27.1219 -20.3244,9.53549 5.34141,4.95638 16.1196,-18.7825 28.4058,4.21214 54.3134,7.12709 36.2409,25.9177 41.4745,51.4581 " transform="matrix(0.958387,2.118853e-2,-2.127637e-2,0.962361,28.55657,27.32565)" inkscape:flatsided="false" inkscape:rounded="0.0000000" d="M 41.474475,51.458061 L 18.018852,40.076651 L -4.6542332,52.946537 L -1.0780545,27.121866 L -20.324413,9.5354936 L 5.3414098,4.9563792 L 16.119592,-18.782483 L 28.405764,4.2121405 L 54.313405,7.1270889 L 36.240854,25.917662 L 41.474475,51.458061 z "/>
  <path style="fill:#e07d25;fill-opacity:1.0000000;fill-rule:evenodd;stroke:none;stroke-width:1.0000000pt;stroke-linecap:butt;stroke-linejoin:miter;stroke-opacity:1.0000000;" d="M 67.330745,78.248058 C 67.105149,76.894698 44.774714,47.120785 44.774714,47.120785 L 45.000202,66.519012 L 67.330745,78.248058 z " id="path629" sodipodi:nodetypes="cccc"/>
  <path style="fill:#e07d25;fill-opacity:1.0000000;fill-rule:evenodd;stroke:none;stroke-width:1.0000000pt;stroke-linecap:butt;stroke-linejoin:miter;stroke-opacity:1.0000000;" d="M 22.669767,78.699250 L 45.000202,47.571869 L 45.000310,66.293525 L 22.669767,78.699250 z " id="path630" sodipodi:nodetypes="cccc"/>
  <path style="fill:#e07d25;fill-opacity:1.0000000;fill-rule:evenodd;stroke:none;stroke-width:1.0000000pt;stroke-linecap:butt;stroke-linejoin:miter;stroke-opacity:1.0000000;" d="M 45.902479,47.797465 L 8.4594896,36.068312 L 27.181039,53.662095 L 45.902479,47.797465 z " id="path631" sodipodi:nodetypes="cccc"/>
  <path style="fill:#e07d25;fill-opacity:1.0000000;fill-rule:evenodd;stroke:none;stroke-width:1.0000000pt;stroke-linecap:butt;stroke-linejoin:miter;stroke-opacity:1.0000000;" d="M 44.774714,47.346381 L 80.413150,35.391632 L 63.270666,52.985415 L 44.774714,47.346381 z " id="path632" sodipodi:nodetypes="cccc"/>
  <path style="fill:#e07d25;fill-opacity:1.0000000;fill-rule:evenodd;stroke:none;stroke-width:1.0000000pt;stroke-linecap:butt;stroke-linejoin:miter;stroke-opacity:1.0000000;" d="M 44.323630,9.6777648 C 44.323630,10.128893 44.323630,48.022953 44.774714,47.797465 L 55.601592,32.233828 L 44.323630,9.6777648 z " id="path633" sodipodi:nodetypes="cccc"/>
  <path style="fill:#fff7dc;fill-opacity:1.0000000;fill-rule:evenodd;stroke:none;stroke-width:1.0000000pt;stroke-linecap:butt;stroke-linejoin:miter;stroke-opacity:1.0000000;" d="M 44.323522,10.128893 L 44.549118,47.346381 L 39.586764,41.256262 L 44.323522,10.128893 z " id="path636"/>
  <path style="fill:#fff7dc;fill-opacity:1.0000000;fill-rule:evenodd;stroke:none;stroke-width:1.0000000pt;stroke-linecap:butt;stroke-linejoin:miter;stroke-opacity:1.0000000;" d="M 44.098034,46.669701 L 8.4594896,36.519504 L 39.361275,41.932942 L 44.098034,46.669701 z " id="path637"/>
  <path style="fill:#fff7dc;fill-opacity:1.0000000;fill-rule:evenodd;stroke:none;stroke-width:1.0000000pt;stroke-linecap:butt;stroke-linejoin:miter;stroke-opacity:1.0000000;" d="M 44.549118,48.474144 L 23.346447,78.248165 L 38.233512,50.278696 L 44.549118,48.474144 z " id="path638" sodipodi:nodetypes="cccc"/>
  <path style="fill:#fff7dc;fill-opacity:1.0000000;fill-rule:evenodd;stroke:none;stroke-width:1.0000000pt;stroke-linecap:butt;stroke-linejoin:miter;stroke-opacity:1.0000000;" d="M 79.736578,35.166144 L 49.285877,41.030666 C 49.285877,41.030666 51.767109,36.744991 51.992596,36.744991 C 52.218192,36.744991 79.962066,35.391632 79.736578,35.166144 z " id="path639"/>
  <path style="fill:#fff7dc;fill-opacity:1.0000000;fill-rule:evenodd;stroke:none;stroke-width:1.0000000pt;stroke-linecap:butt;stroke-linejoin:miter;stroke-opacity:1.0000000;" d="M 45.676883,48.023061 L 66.879661,77.120294 L 63.947345,60.428893 L 63.496154,68.097860 L 45.676883,48.023061 z " id="path640"/>
  <path style="fill:#a15a1a;fill-opacity:1.0000000;fill-rule:evenodd;stroke:none;stroke-width:1.0000000pt;stroke-linecap:butt;stroke-linejoin:miter;stroke-opacity:1.0000000;" d="M 23.797531,77.796974 C 23.797531,78.473654 35.526685,66.293416 42.970162,59.075534 L 44.774714,48.248549 L 23.797531,77.796974 z " id="path641" sodipodi:nodetypes="cccc"/>
  <metadata id="metadata18">
    <rdf:RDF id="RDF19">
      <cc:Work rdf:about="" id="Work20">
        <dc:format id="format21">image/svg+xml</dc:format>
        <dc:type id="type23" rdf:resource="http://purl.org/dc/dcmitype/StillImage"/>
      </cc:Work>
    </rdf:RDF>
  </metadata>
</svg>